<?xml version="1.0" encoding="UTF-8" standalone="no"?>
<svg
   xmlns:dc="http://purl.org/dc/elements/1.1/"
   xmlns:cc="http://creativecommons.org/ns#"
   xmlns:rdf="http://www.w3.org/1999/02/22-rdf-syntax-ns#"
   xmlns:svg="http://www.w3.org/2000/svg"
   xmlns="http://www.w3.org/2000/svg"
   viewBox="0 0 10393.707 3212.6001"
   height="3212.6001"
   width="10393.707"
   xml:space="preserve"
   id="svg2"
   version="1.1"><metadata
     id="metadata8"><rdf:RDF><cc:Work
         rdf:about=""><dc:format>image/svg+xml</dc:format><dc:type
           rdf:resource="http://purl.org/dc/dcmitype/StillImage" /></cc:Work></rdf:RDF></metadata><defs
     id="defs6"><clipPath
       id="clipPath20"
       clipPathUnits="userSpaceOnUse"><path
         id="path18"
         d="M 0,2409.449 H 7795.275 V 0 H 0 Z" /></clipPath></defs><g
     transform="matrix(1.3333333,0,0,-1.3333333,0,3212.6)"
     id="g10"><path
       id="path12"
       style="fill:#2d2b28;fill-opacity:1;fill-rule:nonzero;stroke:none"
       d="M 4.847,0 H 7795.276 V 2409.448 H 4.847 Z" /><g
       id="g14"><g
         clip-path="url(#clipPath20)"
         id="g16"><g
           transform="translate(5718.1123,1071.5721)"
           id="g22"><path
             id="path24"
             style="fill:#ffffff;fill-opacity:1;fill-rule:nonzero;stroke:none"
             d="M 0,0 C -48.143,119.442 -112.435,232.476 -146.646,357.354 -179.298,232.073 -242.682,118.307 -293.293,0 Z m 525.134,494.109 v -291.72 c 2.393,-4.097 5.724,-3.644 9.635,-4.328 21.115,-3.693 84.846,0.858 109.027,2.984 110.255,9.691 172.694,36.251 163.593,160.6 C 796.565,509.524 634.226,491.75 525.134,494.109 M -659.21,-415.945 -150.788,681.13 351.951,-388.029 V 642.063 c 128.011,-5.941 265.38,10.383 392.06,-5.977 186.088,-24.032 269.4,-179.564 235.113,-357.012 C 932.187,36.157 710.864,56.233 513.961,58.623 V -415.945 H 181.562 l -121.416,270.999 -417.69,-1.606 -124.294,-269.393 z" /></g><g
           transform="translate(3248.8665,726.8123)"
           id="g26"><path
             id="path28"
             style="fill:#009ee4;fill-opacity:1;fill-rule:nonzero;stroke:none"
             d="m 0,0 c -171.985,-127.289 -438.506,-130.622 -622.953,-27.97 -353.15,196.541 -364.675,726.864 -29.914,948.435 195.969,129.707 473.482,120.817 662.807,-17.449 L -0.032,729.999 C -170.137,881.314 -462.091,909.043 -621.531,727.236 -749.46,581.361 -748.106,324.847 -618.738,180.027 -452.518,-6.047 -173.721,44.392 0,191.223 Z" /></g><g
           transform="translate(7597.9795,726.8123)"
           id="g30"><path
             id="path32"
             style="fill:#ffffff;fill-opacity:1;fill-rule:nonzero;stroke:none"
             d="m 0,0 c -164.827,-122.754 -419.997,-130.042 -601.126,-39.656 -345.775,172.545 -395.032,664.704 -108.393,916.241 197.127,172.987 508.355,178.158 719.431,26.454 L -0.032,729.999 C -170.21,881.15 -462.164,908.959 -621.531,727.236 -749.201,581.656 -748.108,326.43 -620.178,181.379 -454.51,-6.46 -174,42.564 0,191.223 Z" /></g><g
           transform="translate(3486.2939,1775.0498)"
           id="g34"><path
             id="path36"
             style="fill:#009ee4;fill-opacity:1;fill-rule:nonzero;stroke:none"
             d="m 0,0 v -544.358 c 52.644,74.205 119.512,119.454 211.263,130.833 127.046,15.756 270.027,-21.051 296.331,-163.715 13.914,-179.859 2.819,-361.635 6.367,-542.183 H 354.745 l 0.106,409.073 c -1.213,137.725 -79.764,190.864 -211.778,158.398 C 22.608,-581.578 12.274,-676.45 8.275,-782.933 4.075,-894.761 11.63,-1007.54 8.38,-1119.423 H -148.043 V 0 Z" /></g><g
           transform="translate(4390.7573,1224.2532)"
           id="g38"><path
             id="path40"
             style="fill:#009ee4;fill-opacity:1;fill-rule:nonzero;stroke:none"
             d="M 0,0 C -228.971,-12.102 -233.273,-399.529 -49.738,-449.998 254.335,-533.611 301.327,15.926 0,0 M 196.083,-484.879 C 84.355,-640.48 -162.33,-633.676 -272.66,-480.166 -377.866,-333.783 -367.18,-56.569 -229.963,67.927 -109.258,177.442 122.157,168.526 196.083,9.23 V 115.31 H 355.299 V -568.626 H 196.083 Z" /></g><g
           transform="translate(5044.9355,1599.1804)"
           id="g42"><path
             id="path44"
             style="fill:#009ee4;fill-opacity:1;fill-rule:nonzero;stroke:none"
             d="M 0,0 V -259.617 H 120.11 V -396.404 H 0 v -547.149 h -156.423 v 547.149 h -120.11 v 136.787 h 115.92 l 4.19,4.188 V 0 Z" /></g><g
           transform="translate(1413.2485,986.2104)"
           id="g46"><path
             id="path48"
             style="fill:#ffffff;fill-opacity:1;fill-rule:nonzero;stroke:none"
             d="M 0,0 C -139.738,150.317 -213.02,362.124 -133.253,561.206 -275.211,384.266 -526.412,338.432 -735.55,410.688 -569.123,273.491 -477.105,24.948 -565.531,-181.525 l 103.36,93.268 c 138.318,96.361 343.147,112.101 498.957,52.372 z m -827.88,245.674 c -36.726,76.54 -73.811,147.243 -126.53,214.637 l -179.483,183.44 C -706.78,475.877 -150.963,586.829 109.63,983.62 -104.206,554.2 83.591,15.791 444.841,-268.899 c -160.684,68.399 -331.797,84.471 -505.18,72.776 -223.189,-15.056 -432.157,-87.483 -600.071,-237.765 -60.348,-54.012 -105.776,-114.847 -152.841,-179.757 145.062,283.408 119.869,579.016 -14.629,859.319" /></g><g
           transform="translate(585.3686,1231.8845)"
           id="g50"><path
             id="path52"
             style="fill:#009ee4;fill-opacity:1;fill-rule:nonzero;stroke:none"
             d="m 0,0 c 134.498,-280.303 159.691,-575.911 14.629,-859.319 47.065,64.91 92.493,125.745 152.841,179.756 167.914,150.283 376.882,222.71 600.071,237.765 66.174,-142.211 161.663,-272.828 281.755,-373.828 l -19.431,-4.855 c -204.906,74.623 -471.573,70.119 -680.072,12.11 -202.657,-56.384 -379.699,-174.871 -500.386,-347.099 0.218,0.694 -3.959,2.746 0,14.564 144.535,431.534 52.958,785.323 -245.28,1121.531 l -104.456,92.17 C -343.329,6.984 -169.447,-13.161 0,0" /></g><g
           transform="translate(2105.8762,2265.9819)"
           id="g54"><path
             id="path56"
             style="fill:#009ee4;fill-opacity:1;fill-rule:nonzero;stroke:none"
             d="m 0,0 c -32.607,-159.854 5.282,-313.366 102.841,-443.399 26.172,-34.884 59.836,-61.615 86.584,-95.471 -204.434,76.96 -465.296,30.372 -599.941,-150.5 11.184,44.235 28.154,86.927 31.767,133.319 13.659,175.424 -70.936,353.726 -204.162,463.754 199.14,-65.78 468.593,-33.049 592.726,150.512 20.45,2.827 2.903,-23.272 -0.099,-33.94 C 8.152,18.72 2.926,14.343 0,0" /></g><g
           transform="translate(1657.8751,396.8196)"
           id="g58"><path
             id="path60"
             style="fill:#009ee4;fill-opacity:1;fill-rule:nonzero;stroke:none"
             d="m 0,0 -92.792,30.865 19.667,34.063 z" /></g></g></g></g></svg>