<?xml version="1.0" encoding="UTF-8"?>
<svg id="Layer_1" data-name="Layer 1" xmlns="http://www.w3.org/2000/svg" viewBox="0 0 7522.85 2248">
  <defs>
    <style>
      .cls-1 {
        fill: #fff;
      }

      .cls-2 {
        fill: #009be4;
      }
    </style>
  </defs>
  <g>
    <path class="cls-1" d="M4973.86,1668.78l508.42-1097.07,502.74,1069.16V610.77c128.01,5.94,265.38-10.38,392.06,5.98,186.09,24.03,269.4,179.56,235.11,357.01-46.94,242.92-268.26,222.84-465.16,220.45v474.57h-332.4l-121.42-271-417.69,1.61-124.29,269.39h-177.37ZM6158.21,758.73v291.72c2.39,4.1,5.72,3.64,9.63,4.33,21.12,3.69,84.85-.86,109.03-2.98,110.26-9.69,172.69-36.25,163.59-160.6-10.82-147.88-173.16-130.1-282.25-132.46ZM5633.07,1252.84c-48.14-119.44-112.43-232.48-146.65-357.35-32.65,125.28-96.04,239.05-146.65,357.35h293.29Z"/>
    <path class="cls-2" d="M3163.83,1597.6c-171.99,127.29-438.51,130.62-622.95,27.97-353.15-196.54-364.68-726.86-29.91-948.43,195.97-129.71,473.48-120.82,662.81,17.45l-9.97,173.02c-170.1-151.31-462.06-179.04-621.5,2.76-127.93,145.88-126.58,402.39,2.79,547.21,166.22,186.07,445.02,135.63,618.74-11.2v191.22Z"/>
    <path class="cls-1" d="M7512.94,1597.6c-164.83,122.75-420,130.04-601.13,39.66-345.77-172.55-395.03-664.7-108.39-916.24,197.13-172.99,508.35-178.16,719.43-26.45l-9.94,173.04c-170.18-151.15-462.13-178.96-621.5,2.76-127.67,145.58-126.58,400.81,1.35,545.86,165.67,187.84,446.18,138.81,620.18-9.84v191.22Z"/>
    <path class="cls-2" d="M3401.25,549.36v544.36c52.64-74.2,119.51-119.45,211.26-130.83,127.05-15.76,270.03,21.05,296.33,163.72,13.91,179.86,2.82,361.63,6.37,542.18h-159.22l.11-409.07c-1.21-137.73-79.76-190.86-211.78-158.4-120.46,29.63-130.8,124.5-134.8,230.98-4.2,111.83,3.35,224.61.1,336.49h-156.42V549.36h148.04Z"/>
    <path class="cls-2" d="M4501.8,1585.04c-111.73,155.6-358.41,148.8-468.74-4.71-105.21-146.38-94.52-423.6,42.7-548.09,120.71-109.52,352.12-100.6,426.05,58.7v-106.08h159.22v683.94h-159.22v-83.75ZM4305.72,1100.16c-228.97,12.1-233.27,399.53-49.74,450,304.07,83.61,351.07-465.92,49.74-450Z"/>
    <polygon class="cls-2" points="4959.9 725.23 4959.9 984.85 5080.01 984.85 5080.01 1121.63 4959.9 1121.63 4959.9 1668.78 4803.47 1668.78 4803.47 1121.63 4683.36 1121.63 4683.36 984.85 4799.28 984.85 4803.47 980.66 4803.47 725.23 4959.9 725.23"/>
  </g>
  <g>
    <path class="cls-1" d="M500.33,1092.52c-36.73-76.54-73.81-147.24-126.53-214.64l-179.48-183.44c427.11,167.87,982.93,56.92,1243.52-339.87-213.84,429.42-26.04,967.83,335.21,1252.52-160.68-68.4-331.8-84.47-505.18-72.78-223.19,15.06-432.16,87.48-600.07,237.77-60.35,54.01-105.78,114.85-152.84,179.76,145.06-283.41,119.87-579.02-14.63-859.32ZM1328.21,1338.2c-139.74-150.32-213.02-362.12-133.25-561.21-141.96,176.94-393.16,222.77-602.3,150.52,166.43,137.2,258.44,385.74,170.02,592.21l103.36-93.27c138.32-96.36,343.15-112.1,498.96-52.37l-36.79-35.89Z"/>
    <path class="cls-2" d="M500.33,1092.52c134.5,280.3,159.69,575.91,14.63,859.32,47.06-64.91,92.49-125.75,152.84-179.76,167.91-150.28,376.88-222.71,600.07-237.77,66.17,142.21,161.66,272.83,281.76,373.83l-19.43,4.85c-204.91-74.62-471.57-70.12-680.07-12.11-202.66,56.38-379.7,174.87-500.39,347.1.22-.69-3.96-2.75,0-14.56,144.54-431.53,52.96-785.32-245.28-1121.53L0,1019.73c157,65.81,330.88,85.96,500.33,72.8Z"/>
    <path class="cls-2" d="M2020.84,58.43c-32.61,159.85,5.28,313.37,102.84,443.4,26.17,34.88,59.84,61.62,86.58,95.47-204.43-76.96-465.3-30.37-599.94,150.5,11.18-44.24,28.15-86.93,31.77-133.32,13.66-175.42-70.94-353.73-204.16-463.75C1637.07,216.5,1906.52,183.77,2030.65.21c20.45-2.83,2.9,23.27-.1,33.94-1.56,5.55-6.79,9.93-9.72,24.27Z"/>
    <polygon class="cls-2" points="1572.84 1927.59 1480.04 1896.73 1499.71 1862.66 1572.84 1927.59"/>
  </g>
</svg>